<svg xmlns="http://www.w3.org/2000/svg" viewBox="0 0 500 500" width="500" height="500" class="illustration"><g id="Layer_10" data-name="Layer 10"><circle cx="180.31" cy="243.11" r="74.46" fill="#000"></circle><path d="M228.91,126.69a116.79,116.79,0,0,0-22.6,2.2,116.43,116.43,0,0,1,0,228.43,116.42,116.42,0,1,0,22.6-230.63Z" fill="#000"></path><path d="M305,126.69a116.91,116.91,0,0,0-16.84,1.22,116.42,116.42,0,0,1,0,230.39A116.42,116.42,0,1,0,305,126.69Z" fill="#000"></path></g><g id="Layer_3" data-name="Layer 3"><path d="M266.08,372.12a128.11,128.11,0,0,1-44.41-7.88,7,7,0,0,1,4.83-13.14,114.64,114.64,0,1,0,0-215.25,7,7,0,1,1-4.83-13.13,128.65,128.65,0,1,1,44.41,249.4Z" fill="#ff77f7"></path><path d="M329.24,372.12a129.23,129.23,0,0,1-33.39-4.38,7,7,0,1,1,3.62-13.52,114.64,114.64,0,1,0,0-221.48,7,7,0,0,1-3.63-13.52,128.65,128.65,0,1,1,33.4,252.9Z" fill="#ff77f7"></path><path d="M182.09,372.12A128.66,128.66,0,1,1,310.73,243.48,128.79,128.79,0,0,1,182.09,372.12Zm0-243.28a114.51,114.51,0,1,0,39.58,7A114.77,114.77,0,0,0,182.09,128.84Z" fill="#ff77f7"></path><path d="M186,284.59h-4.77a23.39,23.39,0,0,1-23.36-23.36,7,7,0,0,1,14,0,9.37,9.37,0,0,0,9.36,9.36H186a9.37,9.37,0,0,0,9.36-9.36v-3.07A9.37,9.37,0,0,0,186,248.8h-4.77a23.39,23.39,0,0,1-23.36-23.36v-3.07A23.39,23.39,0,0,1,181.21,199h6.48a23.39,23.39,0,0,1,23.36,23.36v2a7,7,0,1,1-14,0v-2a9.37,9.37,0,0,0-9.36-9.36h-6.48a9.37,9.37,0,0,0-9.36,9.36v3.07a9.37,9.37,0,0,0,9.36,9.36H186a23.39,23.39,0,0,1,23.36,23.36v3.07A23.39,23.39,0,0,1,186,284.59Z" fill="#ff77f7"></path><path d="M184.45,213a7,7,0,0,1-7-7V190.67a7,7,0,0,1,14,0V206A7,7,0,0,1,184.45,213Z" fill="#ff77f7"></path><path d="M184.45,299.93a7,7,0,0,1-7-7V277.59a7,7,0,0,1,14,0v15.34A7,7,0,0,1,184.45,299.93Z" fill="#ff77f7"></path></g></svg>