<svg xmlns="http://www.w3.org/2000/svg" viewBox="0 0 100 100" width="500" height="500" class="illustration"><defs><style>.cls-1{fill:#231f20;}.cls-1,.cls-2,.cls-4,.cls-5,.cls-6,.cls-7{stroke:#ff77f7;}.cls-1,.cls-3,.cls-4,.cls-5,.cls-6,.cls-7{stroke-miterlimit:10;}.cls-1,.cls-2,.cls-3,.cls-5,.cls-6,.cls-7{stroke-width:1.5px;}.cls-2,.cls-4{fill:#fff;}.cls-2{stroke-linejoin:bevel;}.cls-3{fill:#ff77f7;stroke:#ff77f7;}.cls-5{fill:none;}.cls-6{fill:#fff;}.cls-7{fill:#ffd44d;}</style></defs><g id="Layer_2" data-name="Layer 2"><path class="cls-1" d="M66.58,13.14H26.85a3.42,3.42,0,0,0-3.48,3.35v67a3.42,3.42,0,0,0,3.48,3.35H66.58a3.42,3.42,0,0,0,3.49-3.35v-67A3.42,3.42,0,0,0,66.58,13.14Z"></path><path class="cls-2" d="M19.93,79.36v4a3.48,3.48,0,0,0,3.49,3.48H63.15a3.48,3.48,0,0,0,3.48-3.48V16.62a3.48,3.48,0,0,0-3.48-3.48H23.42a3.48,3.48,0,0,0-3.49,3.48V73.69"></path><path class="cls-3" d="M19.93,79.36v4a3.48,3.48,0,0,0,3.49,3.48H63.15a3.48,3.48,0,0,0,3.48-3.48V16.62a3.48,3.48,0,0,0-3.48-3.48H23.42a3.48,3.48,0,0,0-3.49,3.48V73.69"></path><rect class="cls-4" x="22.93" y="20.74" width="40.69" height="63.13" rx="2.56"></rect><line class="cls-5" x1="42.37" y1="17.02" x2="48.62" y2="17.02"></line><line class="cls-5" x1="37.95" y1="17.02" x2="40.5" y2="17.02"></line><path class="cls-6" d="M77.58,37.1,51.09,63.58,46.85,74.79l11.21-4.24L84.54,44.06a3,3,0,0,0,0-4.22L81.8,37.1A3,3,0,0,0,77.58,37.1Z"></path><polygon class="cls-7" points="49.09 68.87 52.77 72.55 46.85 74.79 49.09 68.87"></polygon><line class="cls-5" x1="83.53" y1="45.08" x2="76.56" y2="38.12"></line><path class="cls-5" d="M46.85,74.79h0a5.42,5.42,0,0,1-5.42-5.42V60.8a5.15,5.15,0,0,1,5.15-5.15h0a5.15,5.15,0,0,0,5.15-5.15V49a5.15,5.15,0,0,0-5.15-5.15H39.41a5.14,5.14,0,0,1-5.15-5.15V36.51a5.15,5.15,0,0,1,5.15-5.15h2.76"></path></g></svg>