<svg xmlns="http://www.w3.org/2000/svg" viewBox="0 0 100 100" width="500" height="500" class="illustration"><defs><style>.cls-1{fill:#0099f5;}.cls-1,.cls-2,.cls-3,.cls-4,.cls-5{stroke:#231f20;stroke-width:1.5px;}.cls-1,.cls-3{stroke-linejoin:bevel;}.cls-2{fill:#f1f2f2;}.cls-2,.cls-4,.cls-5{stroke-miterlimit:10;}.cls-3{fill:#ff77f7;}.cls-4{fill:#ffd44d;}.cls-5{fill:none;}</style></defs><g id="Layer_2" data-name="Layer 2"><path class="cls-1" d="M17.42,36.26V77.63a2.46,2.46,0,0,0,2.46,2.47H81.82a2.46,2.46,0,0,0,2.46-2.47V36.26a3.12,3.12,0,0,0-3.12-3.12H20.54A3.12,3.12,0,0,0,17.42,36.26Z"></path><path class="cls-2" d="M17.42,31.35V72.72a2.46,2.46,0,0,0,2.46,2.47H81.82a2.46,2.46,0,0,0,2.46-2.47V31.35a3.12,3.12,0,0,0-3.12-3.12H20.54A3.12,3.12,0,0,0,17.42,31.35Z"></path><line class="cls-3" x1="77.14" y1="24.45" x2="77.14" y2="30.01"></line><line class="cls-3" x1="60.98" y1="24.45" x2="60.98" y2="30.01"></line><line class="cls-3" x1="44.82" y1="24.45" x2="44.82" y2="30.01"></line><line class="cls-3" x1="28.66" y1="24.45" x2="28.66" y2="30.01"></line><path class="cls-3" d="M63.2,22.53h0A4.33,4.33,0,0,0,61,23.74L29.83,54.86,26,65l10.11-3.82L67.24,30a4.33,4.33,0,0,0,1.21-2.24h0A4.44,4.44,0,0,0,63.2,22.53Z"></path><line class="cls-4" x1="29.83" y1="54.86" x2="34.1" y2="59.13"></line><rect class="cls-4" x="58.8" y="26.35" width="2.76" height="8.89" transform="translate(-4.15 51.58) rotate(-45)"></rect><line class="cls-5" x1="68.29" y1="59.13" x2="71.67" y2="59.13"></line><path class="cls-5" d="M26.29,64.24H42.22a2.56,2.56,0,0,0,2.56-2.55h0a2.55,2.55,0,0,1,2.55-2.56H64.8"></path></g></svg>